<?xml version="1.0" encoding="UTF-8"?>
<!--
  Browser favicon. Reuses the brand mark — speech bubble + heart-arc.
  Static SVG so no runtime / build-time image generation is needed.
-->
<svg xmlns="http://www.w3.org/2000/svg" viewBox="0 0 64 64" width="32" height="32">
  <rect width="64" height="64" rx="12" fill="#2B6CB0" />
  <path
    fill="#A7F3D0"
    d="M32 16c-3 0-5.6 2-5.6 5 0 2.6 1.7 5.2 4.6 8 2.7 2.6 5.7 4.7 7 5.6.8.5 2 .5 2.8 0 1.3-.9 4.3-3 7-5.6 2.9-2.8 4.6-5.4 4.6-8 0-3-2.6-5-5.6-5-2.3 0-4.4 1.3-5.4 3.2-1-2-3-3.2-5.4-3.2Z"
  />
</svg>
