<?xml version="1.0" encoding="UTF-8"?>
<!--
  Single-color variant. Inherits `currentColor` so it adapts to whatever the
  parent surface specifies — primary blue on light, ink on white, white on
  primary, etc.
-->
<svg
  xmlns="http://www.w3.org/2000/svg"
  viewBox="0 0 64 64"
  role="img"
  aria-label="BlueCare"
  width="64"
  height="64"
  fill="currentColor"
>
  <title>BlueCare</title>
  <path d="M32 6c12.703 0 23 9.402 23 21 0 11.598-10.297 21-23 21a26.5 26.5 0 0 1-7.5-1.07L13.6 51.55a1.7 1.7 0 0 1-2.232-2.07l2.78-7.42C10.96 38.39 9 33.32 9 27 9 15.402 19.297 6 32 6Zm0 12.5c-2.4 0-4.85 1.71-4.85 4.78 0 2.4 1.44 4.8 3.94 7.4 2.3 2.38 4.95 4.35 6 5.32.24.22.6.22.84 0 1.05-.97 3.7-2.94 6-5.32 2.5-2.6 3.94-5 3.94-7.4 0-3.07-2.45-4.78-4.85-4.78-1.94 0-3.65 1.07-4.45 2.7a.385.385 0 0 1-.68 0c-.8-1.63-2.51-2.7-4.45-2.7Z" />
</svg>
